<svg xmlns="http://www.w3.org/2000/svg" viewBox="0 0 512 512"><title>settings-handdrawn</title><g style="isolation:isolate"><g id="Layer_1" data-name="Layer 1"><g opacity="0.5"><path d="M381.57,448.75a13.25,13.25,0,0,1-9.38-3.9c-5.9-5.93-4.68-10.88.24-22l-1.62,1.7a13.24,13.24,0,0,1-18.94.21c-7.55-7.55-3.11-16.13,2.51-27q.91-1.76,2-3.79c-40.3,40.81-42,40.83-48.1,40.89a14.18,14.18,0,0,1-9.59-3.91,13.25,13.25,0,0,1,3.62-21.3c9.81-8,62-61.17,107.71-108.76a13.24,13.24,0,0,1,9.47-4.07h.08a13.25,13.25,0,0,1,9.44,3.95c7.12,7.23,2.56,15.08.12,19.3-1.24,2.14-3,5.21-5.23,9q-5.69,9.73-10.73,18.42a14.31,14.31,0,0,1,2.76-.21h.15a13.4,13.4,0,0,1,9.43,3.9,13.24,13.24,0,0,1,2.6,15l-3.43,7.23c5.11-4.16,6.9-4.18,9.76-4.21a13.45,13.45,0,0,1,9.54,3.89,13.26,13.26,0,0,1-2.63,20.77c-5.42,4.74-29.22,29-50.2,50.79a13.25,13.25,0,0,1-9.43,4.06Zm-71.41-40.2a13.19,13.19,0,0,1,7.24,3.7A12.9,12.9,0,0,0,310.16,408.55Zm115.07-16.69a12.86,12.86,0,0,0,9.9,3.86A13.13,13.13,0,0,1,425.23,391.86Z" fill="#767676"/><path d="M433.61,309a13.48,13.48,0,0,1-9.47-3.92,13.25,13.25,0,0,1,3.42-21.19c7.4-6.27,39.21-39.4,49.95-50.59,13-13.57,13-13.57,18.71-13.61h.08a13.24,13.24,0,0,1,9.35,3.86c5,5,6,6-2.92,40.43a13.25,13.25,0,0,1,4.14,21.45s-3.94,4-7.9,8c-2,2-4,4-5.5,5.5-10.19,10.13-17.58,5.93-21.08,2.53a13.24,13.24,0,0,1-3.56-12.91c1-3.66,2-7.4,2.95-11.12C441.16,309,439.6,309,433.74,309Zm7.78-23.92a13.41,13.41,0,0,1,1.47,1.26A13.48,13.48,0,0,0,441.39,285.12Z" fill="#767676"/><path d="M336.25,294.58a13.24,13.24,0,0,1-11-20.64c4.89-7.26,9.85-14.67,14.75-22-.6.06-1.19.07-1.83.07a13.86,13.86,0,0,1-9.51-3.88,13.24,13.24,0,0,1-1.51-17l14-20.07c-10.33,10.08-11.32,10.08-15.74,10.08a13.26,13.26,0,0,1-9.39-3.88c-7.85-7.84-2.08-16.36,1.36-21.45,1-1.43,2.16-3.16,3.53-5.15-10.42,10.19-11.37,10.2-15.77,10.2h0a13.24,13.24,0,0,1-12.36-18L302,159.13c-25.34,26.24-26.21,26.25-32.29,26.31h-.14a13.43,13.43,0,0,1-9.43-3.9,13.24,13.24,0,0,1-2.58-15.12l5.41-11.23c-10.65,10.8-21.26,21.61-30.12,30.67a13.24,13.24,0,0,1-18.93-18.53c86.9-88.82,86.9-88.82,94.25-88.86h.06a13.26,13.26,0,0,1,12,19l-4.44,9.22c15.23-15.57,16.39-15.58,21.43-15.63a13.27,13.27,0,0,1,12.52,18l-9.72,25.19c21.23-21.25,46.44-46.53,66.64-66.81a13.23,13.23,0,0,1,9.38-3.9h0a13.25,13.25,0,0,1,9.38,3.89c7.89,7.91,2.45,16-2.81,23.89L421,93.67l8.2-8.25a13.24,13.24,0,0,1,20.25,16.92l-38.67,55.36a13.2,13.2,0,0,1,5.1,3.18c6.81,6.81,4.64,13.6-2.49,25.82a13.24,13.24,0,0,1,14.81,21.44L345.62,290.7A13.21,13.21,0,0,1,336.25,294.58Z" fill="#767676"/><path d="M213.93,91.47a13.24,13.24,0,0,1-12.78-16.68c3-11.06,6.86-25.55,10.15-37.9a13.25,13.25,0,0,1-1.84-20C224.34,1.5,224.92.9,230.87.88a13.24,13.24,0,0,1,9.5,4c5.39,5.31,4.42,9,.79,22.76-.51,1.94-1.07,4.08-1.68,6.37l28-28a13.24,13.24,0,0,1,18.73,18.73L223.3,87.59A13.23,13.23,0,0,1,213.93,91.47Z" fill="#767676"/><path d="M262.89,511.12a13.24,13.24,0,0,1-10-22c13.81-15.74,29-33.16,44.87-51.36l-68.05,68.05a13.24,13.24,0,0,1-18.73,0c-9.26-9.25-1.15-20.38,6.68-31.13q3.44-4.72,8.29-11c-3.66,3.28-5.11,3.48-8.72,3.51a13.24,13.24,0,0,1-11.19-20.49c3.8-5.81,7.91-12.1,12.19-18.67-9.38,8.24-11.57,8.26-14.59,8.29a13.91,13.91,0,0,1-9.6-3.91c-6.71-6.7-3.18-14.24-.61-19.75.89-1.9,2-4.28,3.36-7l-15.53,15.53a13.24,13.24,0,0,1-18.73,0c-6.73-6.72-4.5-12.12,2.89-30,1.4-3.39,3-7.17,4.67-11.17-5.94,6.1-11.85,12.18-17.31,17.79C102.08,450,102.08,450,95.44,450.08h-.09a13.26,13.26,0,0,1-11.19-20.4l16.78-26.2C79,425.81,76.88,425.84,71.41,425.91A14.3,14.3,0,0,1,61.66,422c-3.64-3.64-6.57-10,.18-19.43,1.1-1.54,2.72-3.77,4.76-6.56,4-5.49,9.71-13.2,16.33-22.17l13.79-18.7a13.25,13.25,0,0,1-7.11-20c7.5-11.29,15.79-23.85,24.16-36.64-21.25,21.09-22.86,21.1-28,21.14a12.92,12.92,0,0,1-9.52-3.9A13.24,13.24,0,0,1,75.35,298l34-41.89c-48.73,49.13-51.22,49.14-57.22,49.19H52a13.64,13.64,0,0,1-9.52-3.93c-6-6-3.9-11.91-1-20.1,1.37-3.89,3.3-9.29,5.47-15.36l-13.3,13.5c-14.9,15.13-14.9,15.13-20.46,15.15h-.05a13.23,13.23,0,0,1-9.36-3.88c-5-5-4.08-9.86-2.85-16.65.55-3,1.33-7.25,2.21-12,1-5.33,2.34-12.6,3.58-19.51A13.48,13.48,0,0,1,5,241.16a13.25,13.25,0,0,1-.56-18.72c10.33-11,12.49-13.25,18.59-13.36a13,13,0,0,1,9.56,3.83c4.34,4.35,5.29,5.3,1.21,28.62,4.79-4.85,9.64-9.74,14.13-14.25,23.44-23.55,23.44-23.55,29.52-23.58a13.23,13.23,0,0,1,9.43,3.89c6.36,6.37,4.8,10.86-2.66,32.46-.63,1.82-1.3,3.74-2,5.7C111.89,216.09,153.8,173,188,137.85c24.79-25.5,48.2-49.57,65.62-67.23,32.31-32.77,32.57-32.77,39.12-32.82h.09a13.26,13.26,0,0,1,10.33,21.61L194.22,193.59a13,13,0,0,1,2.33,1.86c7.54,7.54,2.63,16.53-.62,22.47-2.18,4-5.37,9.42-9.73,16.55-4,6.48-8.87,14.32-14.65,23.42h.38a13.29,13.29,0,0,1,9.4,3.9c8,8,3,16.32-4.63,27.57a12,12,0,0,1,4.65-.68A13.74,13.74,0,0,1,191,292.6a13.24,13.24,0,0,1,1.79,16.51l-18.27,28.53c25.83-26.16,27.31-26.16,32.74-26.21a13.41,13.41,0,0,1,9.52,3.9c6.59,6.59,4.31,12.11-1.81,26.84-1.64,3.94-3.6,8.6-5.74,13.62l25.25-25.25a13.24,13.24,0,0,1,18.73,0c6.81,6.81,4.17,12.19-2.21,25.19l-2.34,4.77c13.56-13.9,27.71-28.55,39.72-41.09a13.25,13.25,0,0,1,9.42-4.08,13.81,13.81,0,0,1,9.51,3.88c7.56,7.56,2.61,15.53-1.37,21.95-1.66,2.66-3.87,6.17-6.5,10.31,20.61-20.92,42.38-43,62.52-63.23,83.22-83.76,84-83.76,91.35-83.79a13.92,13.92,0,0,1,9.49,3.9,13.24,13.24,0,0,1,.56,18.13c-17.87,20.25-38.09,43.29-59,67.23l79.83-79.83a13.24,13.24,0,0,1,18.72,0c9.12,9.12,1.59,19.11-7.14,30.7-5.74,7.62-14.4,18.48-25.75,32.28-19,23.08-45.8,54.83-79.75,94.37-32,37.3-64.48,74.66-87.15,100.66a13.18,13.18,0,0,1-3.83,8.25l-27.11,27.11A13.2,13.2,0,0,1,262.89,511.12Z" fill="#767676"/><path d="M102.69,184.34a13.47,13.47,0,0,1-9.46-3.91c-6.73-6.73-4.36-12.27,2.7-28.69.78-1.82,1.62-3.76,2.51-5.8-6.94,6.2-8.73,6.22-12.09,6.24a13.49,13.49,0,0,1-9.5-3.89c-6.23-6.23-4.43-11.16.94-25.77l1.44-3.9C70,127.76,69,128.54,63.67,128.55l0-13.24L73,105.95a13.19,13.19,0,0,0-18-.68c2.79-2.53,31.78-31.69,49.4-49.48A13.24,13.24,0,0,1,126.18,69.9c-2.21,5.69-4.46,11.53-6.68,17.3l9.29-9.57a13.24,13.24,0,0,1,18.86-.16c6.7,6.68,4.27,12.34-2.24,27.45-1.24,2.88-2.65,6.12-4.17,9.59,6.11-6.34,12.36-12.86,18.42-19.22a13.24,13.24,0,1,1,19.19,18.26c-67.28,70.69-69.3,70.71-76,70.8Z" fill="#767676"/></g><g opacity="0.6"><path d="M416.15,438.59a9.33,9.33,0,0,1-6.45-2.64,8.8,8.8,0,0,1-2.38-4.3c-1-4.53-2.27-10-3.42-15.06a9.09,9.09,0,0,1-12.36-.12c-2.32-2.32-2.46-2.46-5-20.61l-5.66,5.66a8.83,8.83,0,0,1-14.41-9.58l14-34.35c-16.43,16.55-36.55,37.09-51.51,52.47a8.83,8.83,0,0,1-12.66-12.31c82.32-84.6,83.33-84.6,88.19-84.64a8.72,8.72,0,0,1,6.34,2.6,8.83,8.83,0,0,1,1.93,9.58L395,368.72a8.8,8.8,0,0,1,3.89,2.27c2.28,2.28,2.28,2.28,4.57,18.61.11.78.22,1.62.35,2.47,3-2.37,5-2.6,8.49-1.16a8.76,8.76,0,0,1,2.87,1.91c1.51,1.51,1.8,1.8,5.81,19.28a8.69,8.69,0,0,1,4.79-1.6,9.18,9.18,0,0,1,6.73,2.61,8.84,8.84,0,0,1-1.6,13.76c-.64.72-1.58,1.85-2.27,2.67-4.75,5.69-7.36,8.82-12.11,9Z" fill="#767676"/><path d="M448.85,286.15a8.84,8.84,0,0,1-5.45-15.79c1-1,4-4.13,6.57-6.9,21.14-22.44,22.17-23.09,26.81-23.16a8.66,8.66,0,0,1,6.46,2.61,8.84,8.84,0,0,1-2.48,14.24c-3.26,2.84-13.06,13.24-17.94,18.42-9.72,10.32-9.91,10.52-13.84,10.58Zm3-17.12a8.81,8.81,0,0,1,3.18,2A8.78,8.78,0,0,0,451.9,269Zm-4.83-.36a8.38,8.38,0,0,0-3.19,1.35A8.76,8.76,0,0,1,447.06,268.67Zm23.73-13.23a8.82,8.82,0,0,0,1.24,1A8.81,8.81,0,0,1,470.8,255.44Z" fill="#767676"/><path d="M352.34,277.06a8.83,8.83,0,0,1-6.25-2.59c-4.39-4.39-2.42-8.62.07-14L351,250.11c2.63-5.61,6.37-13.61,10.31-22.08a6.65,6.65,0,0,1-5.07,1.67h-.09a8.84,8.84,0,0,1-7.27-13.88c4.92-7.08,10.48-15.09,16.22-23.42-12,11.37-13.79,11.39-16.19,11.41a9.49,9.49,0,0,1-6.42-2.61c-5.54-5.55-2.32-11.25,6.31-26.47,2.7-4.77,6.08-10.57,10.11-17.35-8.08,8.19-16,16.24-22.76,23.15a8.84,8.84,0,0,1-6.27,2.65h0a8.82,8.82,0,0,1-6.25-2.59C318,175,321,170.37,330,156.6c2.06-3.19,4.42-6.78,7-10.66l-8.4,8.78c-14.92,15.6-14.92,15.6-18.77,15.65h-.1a8.82,8.82,0,0,1-6.24-2.59c-3.14-3.14-3.07-3.63-1.25-16.19.25-1.77.56-3.88.89-6.17-14,14.37-15.78,14.41-19,14.47a9.37,9.37,0,0,1-6.51-2.62,8.83,8.83,0,0,1-2.56-6.92c.49-6.32,1-12.94,1.38-18.91-5.4,5.64-11.33,12-15.83,16.85-19.48,20.92-19.48,20.92-24,21a9,9,0,0,1-6.44-2.59,8.84,8.84,0,0,1,1.77-13.87c2.4-2.23,9.75-10.13,15.75-16.57,31.16-33.46,33.12-34.54,38.27-34.63a9.17,9.17,0,0,1,6.61,2.66c2.73,2.73,3.32,3.32,1.82,24.62,4.72-4.91,9.95-10.45,14.74-15.62a8.82,8.82,0,0,1,12.76-.21c3.18,3.22,3.18,3.22.87,19.66l-.42,3c57.45-60,59.1-60,64.16-60.06h.09a9.19,9.19,0,0,1,6.39,2.64c5.79,5.79,2.31,11.21-8,27.29l-.8,1.25c16.24-16,17.5-16,20.42-16a8.5,8.5,0,0,1,6.3,2.59,8.83,8.83,0,0,1,1.24,10.92c-8.67,13.87-17.59,28.33-25.65,41.62,10.1-10.37,21-21.61,31.32-32.43a8.83,8.83,0,0,1,6.28-2.72h.1a8.82,8.82,0,0,1,6.24,2.59c5.18,5.18,1.64,11-1.22,15.63-1.72,2.8-4.29,6.81-7.66,11.92-5.6,8.5-13.52,20.23-23.52,34.87l-3.85,5.63a8.8,8.8,0,0,1,.8.71c4.5,4.5,2.55,9-1,17.09-1.93,4.43-4.68,10.51-7.8,17.3-1.4,3.06-2.88,6.26-4.39,9.51C398,209.67,398.68,209.67,402,209.66h0a8.83,8.83,0,0,1,6.25,15.07,8.7,8.7,0,0,1-1.26,1.05c-3.22,2.9-19.16,19.11-29.84,30-21,21.3-21,21.3-24.84,21.31Zm43.51-52.32a8.79,8.79,0,0,0,10.63,1.41A8.84,8.84,0,0,1,395.84,224.74ZM238.71,151.94a8.82,8.82,0,0,1,3.89,2.25A8.66,8.66,0,0,0,238.71,151.94Z" fill="#767676"/><path d="M236.22,54.93A8.83,8.83,0,0,1,230,39.86L244,25.8a8.83,8.83,0,0,1,12.48,12.48L242.47,52.34A8.8,8.8,0,0,1,236.22,54.93Z" fill="#767676"/><path d="M244.09,488.05a9.57,9.57,0,0,1-6.54-2.67c-6.19-6.2-.89-13.06,5.27-21,3.76-4.87,9.29-11.63,16.44-20.14l-16.65,17.13a8.83,8.83,0,0,1-13.08-11.85c14.58-17.23,36.08-42.66,59.29-70.13C239.68,430.95,239.65,430.95,235,431a9.12,9.12,0,0,1-6.37-2.6,8.83,8.83,0,0,1-1.9-9.66l11-26.28-4.47,4.78c-13.05,14-13.05,14-17.07,14.05a9,9,0,0,1-6.4-2.59,8.82,8.82,0,0,1-2.52-7.31c.62-5.11,1.37-11.28,2.1-17.36-13,13.37-15.38,13.44-18.23,13.52a9.6,9.6,0,0,1-6.71-2.66c-2.91-2.91-3.66-3.66-.92-22.11-10.94,11.13-24.94,26.08-34.17,35.94-25.3,27-25.3,27-29.85,27.1h-.14a8.93,8.93,0,0,1-6.28-2.6,8.83,8.83,0,0,1-1.2-11L125,401.69c-14,14.61-15.21,14.63-19,14.69a9.12,9.12,0,0,1-6.5-2.62,8.83,8.83,0,0,1-1.38-10.69c6.22-10.66,13.69-23.49,21.05-36.22-30.08,30.43-32.09,30.45-35.41,30.48a8.86,8.86,0,0,1-7.51-13.73c11.63-17.53,26-39.16,38.45-58.05a8.92,8.92,0,0,1-2-1.48c-4.74-4.74-3.43-7.29,3.89-21.42,1.06-2.05,2.24-4.31,3.5-6.72l-5.31,5.31a8.83,8.83,0,0,1-13.11-11.79l52.4-64.78c-57.55,59-59.58,59-64.53,59A9.41,9.41,0,0,1,83.14,281c-5.74-5.74-.86-11.72,2.05-15.3,1.81-2.21,4.48-5.41,7.87-9.44,6.71-8,16.26-19.19,27.46-32.37,17.26-20.29,41.69-49,65.53-77.45C143.9,189,94.6,239.11,55.18,279.41a8.83,8.83,0,0,1-15.13-5.76L39.22,256a8.83,8.83,0,0,1-12-12.86c14-16.07,15.94-16.13,19.42-16.26a9.15,9.15,0,0,1,6.67,2.61,8.83,8.83,0,0,1,2.59,5.84l.81,17.24c19.9-20.3,58-59.07,95.95-97.49C266,40.57,267.5,40.56,272.61,40.53A8.8,8.8,0,0,1,279,43.14c6.94,6.94.47,15.47-12.42,32.46-8,10.53-19.73,25.23-34.92,43.72C270,79.81,271.06,79.8,275.43,79.77h.07a9,9,0,0,1,6.31,2.61,8.82,8.82,0,0,1,.62,11.79l-120,148.34a8.83,8.83,0,0,1,.91,9.71c-3.81,7.11-8.31,15.56-12.83,24.07a8.78,8.78,0,0,1,7.55,2.49c5.1,5.1,2,9.95-1.68,15.57-1.85,2.86-4.51,6.93-7.72,11.8-3.06,4.65-6.6,10-10.41,15.82,5.28-5.45,10.58-11,15.78-16.35a8.82,8.82,0,0,1,6.27-2.71,9.22,9.22,0,0,1,6.33,2.58c4.81,4.79,2.08,9.87-.56,14.78-1.46,2.72-3.58,6.55-6.16,11.12-2.89,5.12-6.53,11.51-10.87,19.09,21.83-22.93,24-23.74,28.36-23.81a9.24,9.24,0,0,1,6.59,2.65,8.83,8.83,0,0,1,1.2,11l-10.3,16.12c14.12-14.07,16.93-15,20.68-15a9,9,0,0,1,9.16,10.33c-.73,4.54-1.47,9.27-2.16,13.77,4-4.27,8.23-8.91,12.12-13.27a8.82,8.82,0,0,1,12.83-.37c2.95,2.95,3.12,3.12.49,25.2,28.22-30,29.82-30,34.32-30.1a9.31,9.31,0,0,1,6.59,2.65,8.83,8.83,0,0,1,1.9,9.66l-10.06,24,16.05-16.83C398,239.35,412.38,227.33,420.33,227.23h.12a9.29,9.29,0,0,1,6.62,2.72c5.7,5.7.71,11.78-1.42,14.37-1.34,1.64-3.32,4-5.85,7.06-5,6-12.22,14.61-20.87,24.89l-4.56,5.43c52.45-52.41,54.8-52.43,58.87-52.46h.07a9.12,9.12,0,0,1,6.35,2.62c5.93,5.93.41,12.07-1.67,14.38l-5.7,6.33c-92.47,102.75-142.59,159.78-169.6,191.35a8.84,8.84,0,0,1-1.16,9.95c-29.73,33.93-33.34,34.05-37.16,34.18Z" fill="#767676"/><path d="M109,190a8.83,8.83,0,0,1-8.18-12.14l13.38-33a9.25,9.25,0,0,1-4.5-2.43,8.82,8.82,0,0,1-2.57-5.74l-.69-12a8.47,8.47,0,0,1-6.09,2.4,8.94,8.94,0,0,1-6.43-2.6c-2.14-2.13-2.14-2.13-5.76-20.74l-.58-3-.44.44A8.83,8.83,0,0,1,74.66,88.68l12-12a9.09,9.09,0,0,1,12.48,0c2.22,2.22,2.22,2.22,6.39,23.64h0c3.88-4,5.19-4.86,8.46-4.91A9,9,0,0,1,120.36,98a8.82,8.82,0,0,1,2.57,5.74l.67,11.66c4.61-5.11,7.07-7,10.85-7.13a8.91,8.91,0,0,1,8.67,12.19l-8.55,21.11c39.4-40.79,42.08-40.83,45.8-40.88a9.19,9.19,0,0,1,6.49,2.63,8.83,8.83,0,0,1-3,14.46c-6.87,5.43-39.54,38.9-68.43,69.46A8.82,8.82,0,0,1,109,190Zm65.39-74.19a8.64,8.64,0,0,0,3.31,2.08A8.79,8.79,0,0,1,174.39,115.83Z" fill="#767676"/></g><g opacity="0.6" style="mix-blend-mode:multiply"><path d="M416.89,437.11a7,7,0,0,1-4.83-2c-2.16-2.16-2.24-4-1.45-7.26a6.63,6.63,0,0,1-5.87-6.41c-.07-2.78-.16-5.66-.24-8.39l-1.36,1.65a6.62,6.62,0,0,1-4.94,2.44,6.39,6.39,0,0,1-5.08-2.14c-2.06-2.25-2.2-2.77-.8-9.83l-1.86,2a6.62,6.62,0,0,1-11.32-5.93c.59-2.66,1.19-5.4,1.77-8.08l-3.58,3.74a6.64,6.64,0,0,1-4.72,2,6.77,6.77,0,0,1-4.76-2c-2.83-2.84-2.44-5.31-.19-10.31-15.19,15.33-17.3,15.37-19.48,15.42H348a7,7,0,0,1-4.85-2,6.62,6.62,0,0,1-.53-8.77l2.74-3.5c-6.79,7.1-13.67,14.35-20.35,21.44a6.62,6.62,0,1,1-9.64-9.08c80.2-85.1,84.33-85.16,87.64-85.21h.09a7,7,0,0,1,4.85,2c4.5,4.49,2,7.93-7.43,20.71q-2.48,3.37-5.69,7.65a6.57,6.57,0,0,1,1.8,1.28c3.5,3.5,2,6.55-1.52,13.92-.88,1.82-1.91,3.93-3,6.19a6.69,6.69,0,0,1,4.06,1.92c2.06,2.05,2.73,2.73.76,12.82,3.18-2.78,4.21-2.8,5.84-2.83h.13a6.77,6.77,0,0,1,4.74,2c1.88,1.88,2.4,2.4.85,10.91a8.85,8.85,0,0,1,1.34-.14,7.15,7.15,0,0,1,5.28,2c1.6,1.6,2,2,2.41,12.35a6.62,6.62,0,0,1,9.18.18c1.42,1.42,2.16,2.15,1.93,4.69a6.62,6.62,0,0,1,6.46,10.8c-13.47,15.53-15.27,15.59-18,15.68Z" fill="#767676"/><path d="M446.89,284.32a6.62,6.62,0,0,1-4.95-11c29.88-33.65,33-33.74,36.06-33.83a7.07,7.07,0,0,1,5.11,2,6.62,6.62,0,0,1,1.33,7.46L480.27,258a6.39,6.39,0,0,1,1.11.88,6.63,6.63,0,0,1-2.44,10.92,124.61,124.61,0,0,0-8.56,9.42,6.64,6.64,0,0,1-4.79,2.38,6.73,6.73,0,0,1-5-1.93,5.51,5.51,0,0,1-1.88-5.2c-2.33,2.55-4.66,5.14-6.87,7.64A6.61,6.61,0,0,1,446.89,284.32Z" fill="#767676"/><path d="M353.77,270.34a6.62,6.62,0,0,1-4.69-2c-4.06-4.08-2.1-6.93,4.37-16.38,1.43-2.09,3.09-4.49,4.9-7.1a6.64,6.64,0,0,1-3.59-1.85c-3.05-3.05-3.39-5,2-14a6.63,6.63,0,0,1-4.77-9.47,6.63,6.63,0,0,1-2.7-1.64c-4.2-4.2-.94-8.79,1.93-12.84.61-.86,1.32-1.85,2.14-3a6.62,6.62,0,0,1-8.72-9.72l2.93-3.68c-2.8,2.24-3.84,2.25-5.38,2.27h-.09a6.92,6.92,0,0,1-4.79-2c-1.71-1.71-2.31-3.35-2.06-5.17a6.63,6.63,0,0,1-2.79.68,6.86,6.86,0,0,1-4.81-1.94c-4.36-4.37-1.76-8.14,6-19.33q2-2.94,4.67-6.68c-14,14.63-14.14,14.63-17,14.66h-.07a6.62,6.62,0,0,1-5.38-10.48l7.19-10c-15.41,14.86-17.72,14.9-19.63,14.93h-.11a7.18,7.18,0,0,1-4.9-2,5.68,5.68,0,0,1-2-4.47,4.57,4.57,0,0,1-3.36,1.07h0a6.62,6.62,0,0,1-6-9.47l.94-2c-2.12,2.34-4.22,4.68-6.25,7a6.62,6.62,0,0,1-10.86-7.4l1.5-2.94c-14.35,14.33-14.78,14.34-17.17,14.3a6.62,6.62,0,0,1-4.64-1.94,7,7,0,0,1-1.51-2.14L237.66,167a6.62,6.62,0,0,1-9.36-9.36l53.54-53.54a6.62,6.62,0,0,1,4.68-1.94h0a6.62,6.62,0,0,1,4.69,2,7.83,7.83,0,0,1,1.56,2.14,6.63,6.63,0,0,1,3.87-1.25h0a6.62,6.62,0,0,1,4.68,1.94c2.1,2.1,2.94,2.94.69,8.4,4.35-3.6,5.84-3.65,7.24-3.69a7.65,7.65,0,0,1,5.13,2,6.61,6.61,0,0,1,1.3,7.53l-.18.37c5.47-5.3,6.16-5.3,8.12-5.31h0a6.63,6.63,0,0,1,6.33,8.59c12.79-13.11,28-29.17,42.39-44.59a6.63,6.63,0,0,1,4.73-2.11,6.8,6.8,0,0,1,4.8,1.94c4,4,1.26,8-1.36,12-1.16,1.75-2.73,4.05-4.6,6.77,13.27-13,14.75-13,17.21-13.07a6.9,6.9,0,0,1,4.87,2c4,4,1.47,7.52-2.44,12.79l-6.48,8.74c13-12.25,15.26-12.3,17-12.33a7.23,7.23,0,0,1,5.06,2c1.88,1.87,2.33,3.66,1.9,5.49a6.43,6.43,0,0,1,2.08-.26,7.08,7.08,0,0,1,4.88,2c2.3,2.3,3.67,3.67-.84,11.16,3.26-2.48,4.29-2.5,5.37-2.51A6.66,6.66,0,0,1,430,125.62c-11.67,14.61-26.71,33.57-39.87,50.36a6,6,0,0,1,.57.51,6.62,6.62,0,0,1,.79,8.41l0,0a6.62,6.62,0,0,1,3.26,9.92l-1.13,1.69.77,0a6.62,6.62,0,0,1,5,2c2.6,2.61,3.67,3.68-1.37,12a5.47,5.47,0,0,1,2.81-.69,7,7,0,0,1,4.95,2,6.62,6.62,0,0,1-2.62,11c-5.05,3.9-26.09,25.66-44.44,45.44a6.62,6.62,0,0,1-4.74,2.12Zm42.56-49.15a6.54,6.54,0,0,0,1.55,1.15A6.58,6.58,0,0,1,396.33,221.18Z" fill="#767676"/><path d="M236.14,57.14a6.91,6.91,0,0,1-4.8-2,6.62,6.62,0,0,1,0-9.36,6.52,6.52,0,0,1,2-1.36c1.52-1.43,4.83-5.12,7.11-7.66,7.81-8.69,9.44-10.5,13-10.6a6.72,6.72,0,0,1,4.94,2,6.62,6.62,0,0,1,0,9.36,6.55,6.55,0,0,1-1.73,1.25c-1.35,1.3-4.32,4.6-6.37,6.88C242,54.85,240,57,236.31,57.13Z" fill="#767676"/><path d="M273.74,486.86a7.1,7.1,0,0,1-5-2.1,5.07,5.07,0,0,1-1.79-3.44c-1.91,2-3.33,2.81-5.54,2.9a6.82,6.82,0,0,1-5-2,6.63,6.63,0,0,1-1.9-5.29l-7.13,7.13a6.62,6.62,0,0,1-9.51-9.22l.7-.74a6.65,6.65,0,0,1-3.2-1.77c-3.47-3.47-1.8-7.13.13-9.79a6.8,6.8,0,0,1-3.71-1.88,6.62,6.62,0,0,1-.06-9.31l3.7-3.79a6.91,6.91,0,0,1-3-1.78,6.63,6.63,0,0,1-.16-9.19l2.93-3.14a6.62,6.62,0,0,1-5.62-10.94l22.13-25.37c-13.61,13-16.65,14.2-19.39,14.23h-.06a7.3,7.3,0,0,1-4.94-2c-3.66-3.69-1.94-6.72,1.84-13.38l.73-1.29c-3.63,3.74-7.16,7.42-10.38,10.76a6.62,6.62,0,0,1-4.73,2,6.38,6.38,0,0,1-4.76-2c-3.24-3.28-2-6.14.53-11.84l1.43-3.22c-2.8,2.92-5.64,5.9-8.4,8.82a6.62,6.62,0,0,1-4.72,2.07h-.09a6.61,6.61,0,0,1-4.68-1.94c-1.91-1.9-2.51-3.28-1.84-5.65a7.45,7.45,0,0,1-4.35,1.48,7.6,7.6,0,0,1-5.1-2A6.62,6.62,0,0,1,181.3,386l2-4.68L130.56,434a6.62,6.62,0,0,1-9.36,0c-2.27-2.26-2.85-4.19-1.48-7.32-2.33,1.7-3.32,1.71-4.68,1.73a7.35,7.35,0,0,1-4.87-2c-3.25-3.25-2.78-6.24,1.17-12.33-2.71,2.28-3.52,2.29-4.91,2.3h0a6.66,6.66,0,0,1-4.7-1.95c-1.74-1.74-2.3-3.35-2-5a5.66,5.66,0,0,1-2.61.47,6.87,6.87,0,0,1-4.84-2c-2.29-2.29-2.89-4.42-1.37-7.87h-.22a6.93,6.93,0,0,1-5-2,6.62,6.62,0,0,1-.44-8.87l1.2-1.47-1.15,1.06-.23.29L85,389c-2.84,2.53-3.61,2.53-5.08,2.55a6.63,6.63,0,0,1-5.24-10.74c14.27-18,29.21-37.06,41.68-53.33a6.6,6.6,0,0,1-2.69-9.52l2.38-3.72a6.59,6.59,0,0,1-5.61-1.87c-2.56-2.56-3.16-4.33-.55-9.22a6.69,6.69,0,0,1-1.56.18h0a6.61,6.61,0,0,1-4.68-1.94c-4.47-4.48-.49-9.31,2.14-12.51l.31-.38a6.62,6.62,0,0,1-4.51-11.06c19.59-21.6,42.26-46.69,64.48-71.46-25,25.73-50.31,52-71.23,73.86a6.63,6.63,0,0,1-4.71,2h-.07A6.63,6.63,0,0,1,85.38,280,8,8,0,0,1,84,278.11l-.14.14a6.61,6.61,0,0,1-4.68,1.95h0a6.62,6.62,0,0,1-4.68-1.94,6.47,6.47,0,0,1-2.14-4.92c-6,5.13-8,5.72-10,5.73a7.54,7.54,0,0,1-5-2,6.67,6.67,0,0,1-1.49-2.29c-5.53,4.5-8.33,5.77-10.37,5.79h-.09a7,7,0,0,1-5-2.06A6.62,6.62,0,0,1,39,271.32l3.57-8.8c-6.44,6.64-7.42,7-10,7a7.27,7.27,0,0,1-4.82-2,6.62,6.62,0,0,1-1.56-6.86l3.21-9.19a6.89,6.89,0,0,1-1.11-.9,6.62,6.62,0,0,1,2.66-11,68,68,0,0,0,5-6,6.62,6.62,0,0,1,11.9,4.06c9.37-9.84,10.27-10.3,13.28-10.34a7,7,0,0,1,4.83,2,6.62,6.62,0,0,1,1.45,7.17l-6.45,15.91C86.23,228,132.73,179.3,169.21,141.07c90.74-95.05,95-98.38,100.16-98.44h.07a7.05,7.05,0,0,1,4.85,2,6.62,6.62,0,0,1,.17,9.19l-1.53,1.65a7,7,0,0,1,4.1,1.95c4.69,4.7.74,9.12-4.25,14.71l-1.45,1.61a3.45,3.45,0,0,1,1,0,6.62,6.62,0,0,1,5.81,9.81A6.85,6.85,0,0,1,280.37,85c4.72,4.72,1.13,9.13-6,17.92l-1.89,2.3c4.44-3.48,6.17-3.92,7.73-3.93h.05a7.18,7.18,0,0,1,4.89,2c4.55,4.55,1,8.51-4,14-2.79,3.09-6.86,7.53-11.9,13-10.06,10.92-24,26-39.49,42.66-21.47,23.15-48.25,52-70.64,76.42,1.59,3.3-.68,6.54-2.42,9l-4.6,6.52,0,.05a6.62,6.62,0,0,1,4.81,10.15l-4.71,7.35a6.62,6.62,0,0,1,4.25,1.93c4.35,4.35,2.08,8.49-6.47,20.34,4.62-4,5.73-4,7.41-4h.05a6.81,6.81,0,0,1,4.76,2c2.15,2.15,3.54,3.53-.11,10a6.62,6.62,0,0,1,3.18-.89,6.24,6.24,0,0,1,4.82,1.94c3.07,3.07,2.75,5.55-.09,9.61a6.56,6.56,0,0,1,4.93,2c1.83,1.83,2.42,3.62,2,5.72a5.93,5.93,0,0,1,1.76-.19h0a6.71,6.71,0,0,1,4.71,2,6.62,6.62,0,0,1,.49,8.81L179.54,347c5.82-5.63,6.8-5.64,8.92-5.66a6.43,6.43,0,0,1,4.81,2c2.77,2.78,2.24,5.75.91,8.33l2.45-2.45a6.62,6.62,0,0,1,9.36,0c2.12,2.12,3.05,3,.62,10.12,7.5-8.19,9.38-9.44,12.52-9.53a6.79,6.79,0,0,1,5,2c1.93,1.93,2.38,3.58,1.77,5.8,3.88-3.34,5-3.36,6.48-3.38h.09a6.76,6.76,0,0,1,4.74,2c3.25,3.25,1.84,6.34-.11,10.62L236,369.24c18.51-18.82,19.76-18.83,22.36-18.85a6.42,6.42,0,0,1,4.8,2c3.15,3.14,3.83,3.81-5.38,20.17,21.73-21.81,51.59-53,74.38-76.75,66.31-69.2,66.67-69.2,71.09-69.25a6.87,6.87,0,0,1,4.83,2,6.62,6.62,0,0,1,.31,9L367.09,284.9l51.63-51.63a6.62,6.62,0,0,1,9.36,0c1.77,1.77,2.47,3.32,2.15,5.13,6-6,6.51-6,8.87-6h.07a6.64,6.64,0,0,1,4.69,1.94,8.08,8.08,0,0,1,1.42,1.86c3.14-2.13,5.13-2.88,6.65-2.89a7.22,7.22,0,0,1,5.16,2.08,6.58,6.58,0,0,1,1.9,4l4.22-4.22a6.62,6.62,0,0,1,9.51,9.22l-189.92,202c-.31,1.84-1.39,4.1-2.92,7.34-.91,1.92-2,4.25-3.21,6.72a6.24,6.24,0,0,1,.84.7c2,2,2,2,2.33,13.51l0,.53a6.6,6.6,0,0,1,1.1,5.3,7.77,7.77,0,0,1-5.29,6.15A6.86,6.86,0,0,1,273.74,486.86Z" fill="#767676"/><path d="M106.25,196.86a6.6,6.6,0,0,1-4.68-1.94c-4.39-4.39-2.07-8,6.38-18.67a6.71,6.71,0,0,1-.91-.76,6.63,6.63,0,0,1-.94-8.18l13.29-21.38c-.22-.18-.43-.38-.65-.59-1.81-1.8-2.46-2.46-1.39-6.89a6.52,6.52,0,0,1-2.37.43,7,7,0,0,1-4.89-2c-1.35-1.35-2.19-2.18-2.07-4.25a6.62,6.62,0,0,1-8.3-7.45c.43-2.67.88-5.4,1.3-8.07a6.19,6.19,0,0,1-2.64.55,7.13,7.13,0,0,1-5.13-2c-1.55-1.55-2.29-2.29-1.82-6.18a6.62,6.62,0,0,1-10.18-6.35l.28-2.34a7.52,7.52,0,0,1-1.28.14,6.93,6.93,0,0,1-5-2,6.62,6.62,0,0,1,0-9.36,6.55,6.55,0,0,1,1.81-1.28c1-1,2.8-3,4-4.36,4.2-4.78,5.62-6.38,8.84-6.49a6.57,6.57,0,0,1,4.93,2c1.33,1.33,1.92,1.92,1.69,6.15,3.29-3,4.19-3,6-3.06h.09a6.64,6.64,0,0,1,6.47,8.15l-.33,1.4a6.65,6.65,0,0,1,1.45-.23,6.56,6.56,0,0,1,5,1.91c1.84,1.82,2.42,2.39,1,12.59,4.33-4,5.53-4.06,7.29-4.1a7,7,0,0,1,4.92,2,6.62,6.62,0,0,1,1.93,5c.22,0,.44,0,.67,0a6.68,6.68,0,0,1,6.79,7.88,6.62,6.62,0,0,1,10,8.51l-.39.62c5.47-5.56,10.79-11,15.4-15.67a6.62,6.62,0,0,1,11.11,2.85l12-12a6.62,6.62,0,0,1,9.36,9.36l-84.25,84.25A6.6,6.6,0,0,1,106.25,196.86Z" fill="#767676"/></g><g opacity="0.5"><path d="M255.17,505.32a8,8,0,0,1-6.81-4,8.88,8.88,0,0,1-.79-1.72,39.51,39.51,0,0,1-7.23.72c-18.08,0-24.1-15.45-27.1-29.73-2.47-2.93-2.24-7.15-2.1-9.92.23-4.33,0-6.07-1.5-7.2l-2.26-1.65-.15-2.79c-.27-5.06-14.71-22.1-31.92-34a67.82,67.82,0,0,1-9.22,2.55c-7.12,1.61-14.48,3.27-21.57,10.49l-.54.55-.66.39c-.94.56-2.65,2.71-5.09,6.38-1.43,2.16-2.9,4.39-6.19,4.39h-.36a47.21,47.21,0,0,1-23.28,6.12c-11.87,0-22.16-4.61-28.25-12.64l.2-.19a27.47,27.47,0,0,1-4.29-6.62c-9.57-9.1-14.6-19.25-14.19-28.72.32-7.51,4-14.19,10.73-19.3l2.74-2.09a59.4,59.4,0,0,1,8.15-6.22l1.5-1.15-.06.3a30.17,30.17,0,0,1,3.59-1.7c2.2-10.65,2.2-27,2.19-38.11,0-3.76,0-7,.07-9.55-11.93-9.84-24.23-20-33.7-22.21a58.45,58.45,0,0,0-13-1.63,12.43,12.43,0,0,0-1.73.08,5.63,5.63,0,0,0,1.08-10.38l-2,11.53c-12.6-.83-22.46-5.37-28.54-13.14-5.8-7.41-7.76-17.51-5.67-29.17l.69-3.86a32.82,32.82,0,0,1,5.29-24.19c5.85-8.26,15.62-13.18,26.93-13.6a12.78,12.78,0,0,1,3.45-.39,94.7,94.7,0,0,1,10.9,1.05c1,.14,1.84.25,2.41.32h.49c8.67,0,28.55-24.21,34.65-36.09l.37-.63c3.68-5.4-.08-18.6-5.9-27.55l-.59-1.18c-.63-1.65-5.22-5.42-6.73-6.66-2.24-1.84-4.54-3.73-4.81-6.39a34.85,34.85,0,0,1-8.88-24.14A38.16,38.16,0,0,1,77.3,84.32c.75-3.55,3.93-5,6.29-6.14a20.26,20.26,0,0,0,2.64-1.39c2.66-5.67,9.68-9.13,18.74-9.13A40.16,40.16,0,0,1,129.07,76c3.36.41,6.91,2.78,12.07,6.46,1.43,1,3.47,2.47,4.61,3.13l1-.12,1.83,1.27c6,4.18,24.18,4.57,35,4.8,4.9.1,8.52.19,11.24.44C200.45,84.73,204,75.6,207.79,66c1.16-3,2.33-5.93,3.56-8.88l.45.08-.37-.16c.43-1.12,2.55-8.21,3.56-11.62l.87-2.92c-1.79-9.94.25-19.14,5.82-26.06a25.85,25.85,0,0,1,20.15-9.84,24.83,24.83,0,0,1,5.89.71c.36-.08.74-.19,1.15-.3a17.7,17.7,0,0,1,4.77-.79c5.28,0,9.12,3.46,12.34,7.85,12.59-1.07,25.5,11.48,34.84,34.08L296.5,51a20.37,20.37,0,0,1-1,7.44c4,6.34,15.25,18.93,22.33,26.86,4.88,5.47,8.51,9.55,10.89,12.49,2.59-.68,5.65-1.71,8.83-2.79,8-2.71,17-5.76,26-6.06,2.23-7.39,6.52-17.45,14-17.16A34.46,34.46,0,0,1,400.29,63c9.52,0,19.22,4.15,28,12l10.56,9.39-4.54.28c.09.27.17.55.24.82C452,100,442.29,123.84,438,134.29l-11.05-4a5.3,5.3,0,0,0,.83,4.65,5.42,5.42,0,0,0,4.28,2.23,3.3,3.3,0,0,0,1.05-.14c-1.49.55-6.51,4.55-7.06,8.49l-.21,1.51-.91,1.22c-6.43,8.58-4.47,30-3.3,42.72.21,2.33.41,4.47.54,6.34,8.62,9.83,16.39,10.93,26.27,11.38l1.3.06,1.16.61c6.58,3.44,11.73,2.27,12.27,2.07a5.36,5.36,0,0,0-2.89,5.38,5.47,5.47,0,0,0,4.26,4.93L465.95,210c19.92,1.46,32.74,15.55,36.11,39.67l.51,3.66-.08.05c.66,3,1.19,6.88-1.25,10a7.79,7.79,0,0,1-5,2.86c.6,8.56-1.51,16.34-6.19,22.52-5.17,6.81-13.21,11-21,11h-1.79l-1.61-1c-2-1.32-5,0-7.67,1.12l-2.42,1-1.89-.07c-14.06,0-29.42,22.83-34.53,35.06l-.26.54c-4.14,7.64,2.49,20.52,5.42,25.89,4.22,3.87,9.73,12.53,9.18,19a25,25,0,0,1,10.14,14.55c2.61,10.28-1.26,21.77-5.58,28.47a10.08,10.08,0,0,1-1.19,7,11.88,11.88,0,0,1-10.33,5.57,12.2,12.2,0,0,1-2.7-.3c-12.7,8.08-29.49,7.92-48.22-.69h-1.05c-2,0-4.61,0-9.08-9.71-5.41-1.78-16.34-3.39-29.3-3.39-10,0-19,1-25,2.73-7.46,7.11-14.13,14.62-11.19,22l.28.89a20.61,20.61,0,0,1-2,14.21l.12,1.32a37.82,37.82,0,0,1-9.73,28.86c-7.84,8.59-19.07,13-31.34,12.14A7,7,0,0,1,255.17,505.32ZM267,481.21l-6.7,12.08a25.92,25.92,0,0,0,26.44-24.52,6.11,6.11,0,0,1-1.17-1.51c-1.86-3.36,0-6.37,1.06-8,1.26-2,2.82-4.47,2.2-7.86-5.81-15.52,7.86-28.38,15.23-35.32l1-.9,1.24-.41c9.78-3.21,23-3.69,29.93-3.69,11.57,0,28,1.38,36.22,5.26l2,1,.88,2.07c.26.6,1.39,2.72,2.38,4.52,17.18,8.66,31.75,9.21,41.83,1.41l3.68-2.84,1.92,1.55-.76-1.36,2.68-3.12c2.72-3.16,7.2-12.8,5.18-20.74-1.2-4.74-4.57-8.11-10.3-10.29l3.18-11.29a3.58,3.58,0,0,0-2.32,1.1,3.27,3.27,0,0,0-1,2c0-1.81-3.07-7.59-5.64-9.52l-1-.76-.61-1.1c-3.66-6.61-13.34-24.1-6.14-37.86,5-11.9,22.57-41.81,45-42,2.62-1.1,6.2-2.61,10.28-2.61a15,15,0,0,1,6.61,1.49,16,16,0,0,0,10.35-6.29c2.87-3.78,5.65-10.6,2.59-21.55l-3.64-13,10.62,5.48a10.21,10.21,0,0,1-.06-2.45c-2.59-16.5-10-25.9-22.2-28a18.17,18.17,0,0,1-7.7,1.36,32,32,0,0,1-13.65-3.13c-11.64-.62-23.08-2.71-34.79-17l-1.22-1.5-.1-1.93c-.11-2.15-.36-4.84-.64-7.88-1.37-14.91-3.41-37.19,4.78-49.67,1.75-7.43,8.48-13.92,13.85-16.15,6.66-17.68,5.6-27.12-3.44-33.16l-6.23-4.16,2.78-2.55-.31-.35a14.79,14.79,0,0,1-2.74-3.85c-6.05-4.85-12.34-7.4-18.31-7.4-6.26,0-12,2.7-17.2,8l-4.88,5-1.08-1.49a48.31,48.31,0,0,0-3.35,10l-1.16,5-5.14-.49c-8.24-.81-17.79,2.5-26.18,5.34-5.21,1.76-10.13,3.43-14.31,4l-3.71.49-2-3.16c-1.37-2.15-6.9-8.34-12.24-14.32-13.58-15.22-23.38-26.48-25.82-32.89l-1.49-3.93L284.57,54a17.64,17.64,0,0,0,.16-2.94,19,19,0,0,1,.22-3.52,7.64,7.64,0,0,1,1.22-3c-6.75-12.84-14.08-18.76-18.67-18.76a5.28,5.28,0,0,0-2,.38L261,27.92l-2.61-4.11c-3.32-5.24-4.79-5.83-4.85-5.85s-.95.23-1.57.4a25.91,25.91,0,0,1-3.83.81l-1.24.15-1.2-.37a13.92,13.92,0,0,0-14.84,4.87c-3.28,4.08-4.5,9.71-3.5,16l1.08,1.4-.8,3.11H227l.52.18,0,.07c-.19.59-.67,2.21-1.26,4.2-.75,2.51-1.67,5.61-2.43,8.08a39,39,0,0,1-1.67,4.8h0c-1.2,2.86-2.33,5.75-3.46,8.63-4.39,11.21-8.93,22.79-17.08,31.89l-2.43,2.72-3.52-1c-1.57-.43-7.29-.55-12.34-.66-17-.36-31.8-1.09-40.29-6.12-2.37-.63-4.9-2.37-8.79-5.14-1.6-1.14-4-2.86-5.64-3.8l-1.83,1.32-3.52-3.08a28.67,28.67,0,0,0-18.33-7c-5.13,0-7.87,1.7-8.1,2.39l-.26.77-.46.68a12.59,12.59,0,0,1-3.39,3.3l.52.43-6.18,4.47c-5.89,4.26-9.77,12.23-9.87,20.28A23.31,23.31,0,0,0,86.54,131l-.73,1.34.83.68c4.28,3.52,8.27,7,10,11,5.59,8.83,13.52,27.76,5.64,39.82-3.09,5.72-22.28,35.43-39.44,41.19l-.06,1-5.68,0a36.75,36.75,0,0,1-4.25-.46c-2.72-.36-6.8-.92-9.13-.95l-.43.34-2,0c-8.08.09-14.66,3.16-18.55,8.65s-4.62,13-2.05,20.51L24,263.75l-5.83-1.11c-.2,5.79,1.13,10.55,4,14.2,4.05,5.18,10.52,7.37,16.22,8.23a15,15,0,0,1,5.72-.84,69.5,69.5,0,0,1,15.89,2c12.08,2.88,25.58,14,38.64,24.81l4.31,3.56-.23,3c-.18,2.43-.18,6.76-.18,11.77,0,13.7,0,32.46-3.37,44.38l-1,3.46-3.53.7c-4.43.88-9.82,5.7-12.41,8a15.12,15.12,0,0,1-3.43,2.58c-3.25,2.8-5,6-5.13,9.65-.27,6.17,3.9,13.65,11.43,20.5l1.22,1.11.46,1.59c.13.44.8,2.16,3.88,5.5a7.23,7.23,0,0,1,1.17,1.65c4,3.55,9.87,5.54,16.6,5.54a34.72,34.72,0,0,0,20.53-6.63l.88-.68a29,29,0,0,1,6.79-7.48c9.38-9.27,19.08-11.47,26.9-13.24,3.78-.86,7-1.6,9.65-3l3.06-1.62,2.9,1.89c14.77,9.61,36,29.31,39.42,42.26,4.94,5,4.59,11.56,4.37,15.67,0,.48-.06,1-.07,1.55l1,.44.58,3c4,20.54,10,22.26,16,22.26a40.23,40.23,0,0,0,12.3-2.47ZM83.6,136.39l2.1.94a5.76,5.76,0,0,0-.08-4.62ZM295.4,51.76l-2.13,1.43A5.28,5.28,0,0,0,295.4,51.76ZM252.54,346.71c-25.17,0-48.14-9.31-64.67-26.22s-25.28-40-24.71-65.11c1.59-50.46,41.18-89.95,90.13-89.95.83,0,1.67,0,2.51,0a93,93,0,0,1,67.08,29.21A80.59,80.59,0,0,1,345,254.86a88.77,88.77,0,0,1-25.45,64.6c-16.79,17.28-39.68,27.19-62.82,27.19h-.46C255.17,346.69,253.85,346.71,252.54,346.71Zm.75-169.5c-47.5,0-77.14,39.91-78.36,78.49-.49,21.86,7.09,42,21.37,56.56,15,15.39,36.27,23.5,59.75,22.6h.65c20,0,39.79-8.61,54.37-23.62a77.09,77.09,0,0,0,22.12-56.32v-.27l0-.26a68.94,68.94,0,0,0-18.91-51.68,81.21,81.21,0,0,0-58.68-25.47C254.75,177.22,254,177.21,253.29,177.21Z" fill="#2a3546"/></g><g opacity="0.5"><path d="M271.56,508.88l-2.24-2.34c-2.16-2.25-8.9-5.93-15.87-9.57a41.65,41.65,0,0,1-7.35.69c-12.83,0-19.41-6.73-24.7-12.13a32.85,32.85,0,0,0-4.88-4.41L211.69,478l4.33-3.83c5-4.41,7-9.51,6.33-12.27-.79-3.43-5.79-3.75-13.55-.84l-7.92,3,2.09-8.19c2.5-9.81-2.62-15.73-7.58-21.46-3.92-4.52-7.64-8.81-7.28-14.62C174.28,414.94,164.4,412,158,412s-7.87,2.95-8.62,5.83l-.43,1.64-1.42.93c-2.08,1.36-4.08,2.72-6,4.07l-3.28,2.32-.37-.43c-5.58,3-13.07,4.7-21.26,4.7-5.18,0-10.12-.71-13.23-1.89l-.31-.13a24.4,24.4,0,0,0-10.21-2.67,16,16,0,0,0-7.66,2.1A9.79,9.79,0,0,1,81,429.82c-2.62,0-4.47-2.22-5.94-4.6l-.63,0-1.1-2.87c-2.23-6.59-4.61-32.46-4.75-40.2l-.07-3.93,3.9-.52a10.8,10.8,0,0,0,7.82-5.88,9.17,9.17,0,0,0,0-8.2l-1.86-4,3.94-1.9c10.5-5.05,14.94-14.84,13.79-21.49-.82-4.72-4.35-7.45-9.69-7.5l-4.73,0,.37-4.71c1-12.73-5.15-14.2-12.92-16.06-1.5-.36-3-.71-4.39-1.14l-3.54-1.06.43-3.68a1.29,1.29,0,0,0,0-.34c-.33-2-4.74-4.49-8.29-6.49-6.1-3.44-8.77-5.31-9.49-7.95l-.82-3a40.33,40.33,0,0,1-4.07.2c-10.49,0-20.78-3.79-29.61-7.34L.64,273.6l8.26-4.47c.22-.12.31-.16.42-.74l.24-2.2,2.09-1.09c1.12-.58,3.38-1.36,10.14-1.71-11.1-17.58-14.09-32.34-8.64-42.79,4.83-9.27,16.09-14.84,31.7-15.69l3.35-.18,1.07,3.18a15.82,15.82,0,0,1,.73,5.78c-.07,3.76-.12,6.3,20.59,14.32-1.36-5.43.28-12.66,4.74-20.46C81,197.66,91,187.64,99.05,187.64a7.9,7.9,0,0,1,5.58,2.19c3.54-8.76-8.06-28.15-21.16-43.37l-3.15-3.66L84.25,140c.58-.41,1.25-1.66,1.25-3.81,0-2.54-.8-3.64-1-3.78l-1.84.4-1.25-1C66.9,122,60,116.26,60.24,110.3c.24-6.81,9.68-12.25,28.49-23.09L92.61,85c-6.54-1.36-10.7-3.24-12.67-5.72l-3.61-4.53,5.33-2.28a34.73,34.73,0,0,1,13.9-2.58c9.45,0,19.54,2.65,29.3,5.2,5.33,1.4,10.19,2.67,14.69,3.47l.68.12.61.32a6.1,6.1,0,0,0,2.7.48l8.39-.23-4,6.85c-1.68,2.91-5.35,8-11.2,15.41,11.54,2.7,39.54-1,59.45-18.32l-2.39-2.57,4-2.93c1.56-1.13,4.12-2,8-3.24a33.92,33.92,0,0,0,4.82-1.73l-6.24-4.6,7.48-2.9c7.55-2.93,11.88-6.19,11.89-8.95,0-1.89-2-5.78-15.77-10.52l-6-2.07,4-4.9c4.44-5.42,8.06-10.41,11-14.42A96.94,96.94,0,0,1,224,15.41l5.36-5.5,2.05,7.39a53.17,53.17,0,0,1,1.29,8.6c6.37-7.75,14.6-15.75,21.44-15.75,5.62,0,9,5,10.08,15a34.69,34.69,0,0,1,9.94-1.68c13.5,0,20,12,26.1,31.36l1.07,3.41L298.21,60l-.37.21C303.55,63,311.37,69,319.57,75.19,328.7,82.13,339,90,343.71,90.71l2.72.42.82,2.62a6.67,6.67,0,0,0,1.63,2.65,9.84,9.84,0,0,0,7,2.77,10.43,10.43,0,0,0,8.29-4.25L367,91.19l2.27,2c2.79-2.22,5.27-4.32,7.53-6.22,10.39-8.78,17.6-14.87,33.27-16l-1.25-1,22.74,1.75L429,77.41a2.89,2.89,0,0,0-.12.31l-.53,1.66,1.34,3c.54,1.23,1.2,2.58,1.91,4,5.19,10.58,13.6,27.72-3.73,42.19l1.24,2,3.2,2.8L429.87,137c-15.22,18.75-9.76,37-5.37,51.66,1.62,5.39,3,10.13,3.1,14.1A74.11,74.11,0,0,1,438,205.47a97.48,97.48,0,0,0,14.59,3.74l5.21.72-1.62,5a1,1,0,0,0-.06.41c.05.82,1.41,1.74,3.19,2.85,2.37,1.49,5,3.16,5.49,6.14a6.08,6.08,0,0,1-.26,2.82,44.5,44.5,0,0,1,15.66-3c7.35,0,12.27,2.17,13.86,6.12,1.86,4.63-1.1,11-8.78,19l2.28-.09c3.11-.1,4.33-.14,13.84-1.36L512,246.52,505.42,255c-11.71,15.05-19.21,21.11-25.83,26.45a85.75,85.75,0,0,0-16,15.83l-1.84,2.38-2.89-.85a2.55,2.55,0,0,0-.71-.07c-1.89,0-5.28,1-8.86,2-5.45,1.53-11.11,3-14.46,2.41-4,2.06-4.83,4.44-5.69,7-2.16,6.36-6.14,8.3-17,8.3h-.23c6.06,9.85.52,22.32-4,32.5-2.21,5-4.15,9.33-4.19,12.15,8.63,2.16,11.9,8.09,14.56,12.89,2,3.63,3.39,5.89,5.77,6.61,8.65,2.74,14.12,6.7,16.3,11.79,3.18,7.4-1,16-4.37,22.88-.91,1.86-1.78,3.64-2.49,5.35l-1.37,3.3-3.51-.65a63.56,63.56,0,0,0-11-1,24.86,24.86,0,0,0-5.79.53c2.41,3.5,1.81,6.32,1.17,7.79-1.73,3.94-6.91,6.29-13.84,6.29a41.2,41.2,0,0,1-17.8-4.52l-3.91-1.91,1.86-3.94a2.2,2.2,0,0,0,.12-1.83c-.94-2.37-6.25-4.53-11.14-4.53a11,11,0,0,0-3,.35l-2,.56-1.7-1.15c-6.86-4.63-24.8-6.74-38.56-6.74a57.23,57.23,0,0,0-12.12.95,31.83,31.83,0,0,0-14.51,26.95l0,1-.39.92c-2.14,5.07-3.88,8.8-5.16,11.52-.82,1.75-1.66,3.55-2.06,4.66.58-.09,1.32-.26,2.17-.45,1.93-.43,4.57-1,8-1.45l6.18-.78-1.32,6.09c-4.89,22.68-13.41,35.14-29.4,43Zm-16.74-21.15,2.68,1.4c8.08,4.22,12.7,6.87,15.61,9.06,8.87-5,15.86-12.5,20.52-29.16l-.78.17a22.26,22.26,0,0,1-4.82.74,8.15,8.15,0,0,1-7-3.71c-2.6-4.09-1-7.47,1.85-13.6,1.17-2.5,2.74-5.87,4.64-10.34a41.11,41.11,0,0,1,18.76-33.86l.92-.59,1.05-.3c3.85-1.11,10.14-1.34,14.74-1.34,3.06,0,29.14.21,41.82,7.23,7.69-1.22,19.54,1.78,22.74,9.83a10.84,10.84,0,0,1,.77,4.39,30.46,30.46,0,0,0,10.76,2.24,13.43,13.43,0,0,0,5-.78l-.14-.16-6.2-6.75,7.93-4.59c2.75-1.59,6.53-2.33,11.88-2.33a71.65,71.65,0,0,1,9.19.64c.41-.86.84-1.75,1.27-2.64,2.57-5.28,5.77-11.84,4.19-15.53-1.09-2.55-4.93-5-10.8-6.84s-8.68-6.78-10.89-10.78c-2.45-4.44-4.22-7.64-9.67-8.75l-4.94-1-.86-5c-.93-5.38,1.58-11,4.75-18.17,5.13-11.54,8.38-20.12,3.59-25.62l-11.14-12.78,16.94.59q1.56.05,2.93.05c6.85,0,8-.88,8.15-1a8.44,8.44,0,0,0,.52-1.33,18.84,18.84,0,0,1,10.7-12.31l2.49-1.18,2.66.74c2.31,0,6.69-1.26,10.21-2.25,4.43-1.25,8.21-2.31,11.32-2.31h0A95.6,95.6,0,0,1,474,274.54a123.44,123.44,0,0,0,17.57-16.67c-1.34.1-2.33.14-3.62.18-1.47,0-3.15.11-6,.28l-20.08,1.24,14.55-13.9c7.11-6.8,8.79-10.48,9.19-11.87a14.87,14.87,0,0,0-5.43-.79c-5.5,0-12.05,1.64-15.57,3.91L461.41,239l-8.84-10.16L455,226l-.42-.26c-2.39-1.5-6.24-3.91-7.15-8.43-4.15-.88-8.31-2.18-12.09-3.35s-7.8-2.42-9.6-2.5l-7.59-.33.57-7.58c.2-2.62-1.22-7.35-2.71-12.35-4.26-14.21-10.59-35.35,4.64-56.7l-4.51-8.24,3.29-2.26c14.41-9.89,10.87-20.13,4.3-33.51-.82-1.68-1.54-3.14-2.12-4.47l-2.78-6.33q-1.66-.06-3.22-.06c-16.42,0-22,4.71-33.11,14.1-2.92,2.47-6.56,5.54-10.71,8.72L369,104.58l-1-.91a18.94,18.94,0,0,1-12,4.33,18.7,18.7,0,0,1-13.29-5.4,15.79,15.79,0,0,1-2.76-3.78c-5.76-1.84-13.06-7.08-25.61-16.61-7.89-6-17.71-13.46-22-14.74L275,62.27l15.68-8.21c-6.08-18-10.89-21.73-16.56-21.73a28.91,28.91,0,0,0-8.9,1.79l-9,3-.71-9.42c-.39-5.25-1.37-7.76-1.91-8.62-1.93.52-7.57,3.87-16.32,15.17L228,46.38c2.84,2.68,4.71,5.93,4.69,9.91,0,7.73-7.36,12.53-12.88,15.17a8.27,8.27,0,0,1,.1,1.23c0,6.66-6.3,8.62-11.4,10.19l-.41.13.69.75-5.5,5c-18.18,16.51-42.85,22.37-58.45,22.37a37.09,37.09,0,0,1-13.2-2l-9.27-3.62,6.17-7.8c3.74-4.74,6.37-8.19,8.2-10.71-4.45-.86-9.06-2.06-13.91-3.33-2.39-.63-4.79-1.26-7.17-1.84l-7.94,4.61L93.14,94.87c-10.39,6-22.12,12.75-24,15.76,1.05,2.13,6.41,6.5,15.95,13,5.44.24,9.21,5.33,9.21,12.54a15.23,15.23,0,0,1-1.76,7.38c10.84,13.14,29.23,39.2,18.05,53.39l-6.4,8.12-5.49-8.58c-3.14.45-10.61,6.5-15.72,15.44-4.16,7.29-4.74,12.75-3.46,14.92l10.58,18-19.51-7.35c-23.69-8.92-29.43-13.39-29.44-23.37-10,1.26-17.3,5-20.2,10.58-4,7.75-.64,20.54,9.58,36l7.28,11-13.2.39c-1.18,0-2.21.08-3.11.14,5.68,1.91,11.65,3.37,17.43,3.37a27.91,27.91,0,0,0,8.61-1.28l3.88-1.25,5.35,13-.9.46,1.77,1c5.35,3,10.86,6.13,12.4,11.55l1.07.26C78.54,301.1,90.47,304,91,320.41a17.31,17.31,0,0,1,13.83,14.33c1.61,9.24-3.18,21.67-15.21,29.07a17.8,17.8,0,0,1-1.44,11.88,20.08,20.08,0,0,1-10.61,9.71c.53,9.71,2.44,27.7,3.91,33.29l.8,1.37v0a23.58,23.58,0,0,1,10.63-2.55,32.89,32.89,0,0,1,13.8,3.43,32.85,32.85,0,0,0,9.95,1.26c8,0,15.28-1.92,19.38-5.14l3.32-2.61.42.49,1.61-1.08c2.49-6.93,8.33-10.72,16.64-10.72,7.83,0,18.43,3.16,34.09,8.6l5.8,2-.95,6.07c-.32,2,1,4,5.09,8.7,4.54,5.24,10.44,12.06,10.42,22.21a25.87,25.87,0,0,1,5-.54c8.28,0,12.38,5,13.44,9.67,1.2,5.26-.93,11.66-5.52,17.19.78.75,1.53,1.52,2.28,2.28,4.77,4.87,9.27,9.47,18.39,9.47a33.24,33.24,0,0,0,6.2-.63ZM216.71,39.58a45.51,45.51,0,0,1,8.45,4.53l-1-13.85c0-.22,0-.44,0-.66C222,32.54,219.56,35.91,216.71,39.58ZM253,350.12l-.53,0c-32.52-4-59.28-18-73.64-38.55C167,294.74,163.56,274.71,168.42,252c-4.52-20.64,0-40.93,12.85-57.25,15.69-20,41.74-31.55,69-30.59a102.88,102.88,0,0,1,10.74-.57c56.61,0,82.84,48.14,83.75,95.9,1.83,20.66-5.45,41.31-20.51,58.17-17.64,19.75-44.15,31.89-70.92,32.47Zm-5.9-177.2c-23.43,0-45.43,10.19-58.85,27.27-11.35,14.43-15.24,32.47-11,50.78l.23,1-.22,1c-4.61,20.61-1.66,38.62,8.78,53.53,12.91,18.44,37.39,31.13,67.17,34.82,24.44-.61,48.44-11.63,64.42-29.52,13.46-15.06,19.95-33.4,18.29-51.65l0-.32c-.77-43.5-24.24-87.39-74.92-87.39a94.26,94.26,0,0,0-10.11.56l-.32,0h-.32C249.16,172.94,248.12,172.92,247.07,172.92Z" fill="#2a3546"/></g></g></g></svg>